<svg xmlns="http://www.w3.org/2000/svg" width="1024" height="1024" viewBox="0 0 1024 1024">
<g>
<path d="M 451.17 624.55 C447.75,626.00 444.77,625.49 440.69,622.79 C438.39,621.26 435.56,620.01 434.42,620.00 C433.27,620.00 431.99,619.66 431.58,619.25 C430.80,618.47 425.41,618.14 413.76,618.13 C409.27,618.13 406.28,617.61 404.79,616.57 C403.56,615.70 401.64,614.95 400.53,614.88 C398.84,614.79 398.79,614.69 400.25,614.31 C403.35,613.50 402.26,611.01 398.75,610.88 C396.96,610.82 394.15,610.63 392.50,610.46 C376.53,608.81 353.71,607.39 346.00,607.55 L 336.50 607.75 L 334.08 603.92 C332.75,601.82 331.24,600.35 330.73,600.67 C330.22,600.98 330.28,600.35 330.86,599.26 C331.72,597.65 331.49,596.87 329.64,595.13 C328.38,593.95 326.98,593.32 326.52,593.74 C326.06,594.16 326.05,593.87 326.49,593.10 C327.02,592.19 326.66,591.22 325.46,590.35 C324.45,589.61 323.93,589.00 324.31,589.00 C324.69,589.00 324.08,588.08 322.96,586.96 C321.84,585.84 321.20,584.49 321.52,583.96 C321.85,583.43 321.74,583.00 321.27,583.00 C320.18,583.00 316.63,577.01 317.69,576.97 C318.14,576.95 317.63,576.28 316.56,575.47 C315.49,574.66 315.04,573.99 315.56,573.98 C316.08,573.98 316.02,573.64 315.44,573.23 C314.86,572.83 298.24,544.15 278.51,509.50 C258.78,474.85 240.46,442.67 237.79,438.00 L 232.95 429.50 L 252.48 429.23 L 272.00 428.96 L 272.00 381.00 L 293.81 381.00 C309.72,381.00 316.06,381.34 317.24,382.25 C318.83,383.48 325.59,394.96 347.73,434.00 C368.82,471.20 408.13,539.50 408.90,540.29 C409.33,540.72 420.89,520.09 434.59,494.44 C462.73,441.75 464.34,439.41 476.79,433.26 C483.89,429.75 485.00,429.50 493.45,429.50 C501.27,429.50 503.33,429.88 508.60,432.32 C517.64,436.50 523.84,443.37 531.33,457.53 C538.02,470.16 562.28,514.57 574.48,536.50 C591.78,567.61 598.89,580.57 599.19,581.50 C600.10,584.40 597.19,582.24 590.83,575.28 C574.69,557.62 562.08,545.47 555.22,540.94 C544.80,534.07 539.56,532.49 527.50,532.55 C518.99,532.60 516.68,532.99 512.00,535.14 C506.47,537.68 497.87,545.59 494.99,550.78 C491.14,557.70 476.42,585.00 469.00,599.00 C464.47,607.53 460.37,614.65 459.88,614.84 C459.39,615.02 459.28,615.65 459.65,616.24 C460.01,616.83 459.85,617.02 459.28,616.67 C458.71,616.32 457.03,617.79 455.54,619.94 C454.05,622.09 452.08,624.17 451.17,624.55 ZM 256.75 379.11 C248.36,379.18 240.31,379.37 238.85,379.55 C237.39,379.72 235.93,379.60 235.60,379.27 C235.27,378.94 235.00,370.19 235.00,359.83 L 235.00 341.00 L 272.00 341.00 L 272.00 379.00 ZM 232.00 382.00 L 232.00 410.00 L 204.00 410.00 L 204.00 382.00 ZM 233.50 313.50 L 234.06 338.00 L 210.00 338.00 L 210.00 312.94 ZM 198.00 347.00 L 198.00 370.00 L 175.00 370.00 L 175.00 347.00 ZM 279.67 455.33 C280.49,456.16 292.69,456.19 295.75,455.37 C297.88,454.80 298.00,454.27 298.00,445.38 L 298.00 436.00 L 279.00 436.00 L 279.00 445.33 C279.00,450.47 279.30,454.97 279.67,455.33 ZM 191.00 284.92 L 191.00 302.00 L 183.47 302.00 C178.07,302.00 175.79,301.62 175.42,300.65 C175.13,299.91 175.04,296.20 175.20,292.40 L 175.50 285.50 L 183.25 285.21 ZM 447.74 622.67 C448.39,624.28 448.52,624.22 448.83,622.13 C449.01,620.83 448.68,619.28 448.08,618.68 C446.79,617.39 446.58,619.80 447.74,622.67 Z" fill="rgb(1,103,237)"/>
<path d="M 839.13 688.75 L 853.97 707.00 L 803.74 706.97 L 753.50 706.94 L 731.50 678.81 C699.51,637.90 677.51,610.28 671.94,604.00 C656.47,586.59 651.22,578.21 648.95,567.26 C645.31,549.73 653.62,531.24 668.75,523.24 C678.83,517.90 680.27,517.71 715.50,517.09 L 748.50 516.50 L 753.15 513.77 C774.35,501.30 774.73,471.03 753.82,459.45 L 748.50 456.50 L 655.77 456.23 L 563.05 455.96 L 561.90 453.73 C560.57,451.16 552.17,436.79 533.71,405.50 C526.57,393.40 520.53,383.15 520.29,382.73 C520.05,382.30 574.22,382.08 640.68,382.23 L 761.50 382.50 L 770.45 385.30 C798.64,394.13 820.96,412.66 833.93,438.00 C843.11,455.92 846.89,474.92 844.99,493.57 C842.34,519.60 832.75,540.70 815.15,559.20 C800.68,574.40 782.01,585.16 762.68,589.45 C761.13,589.79 760.00,590.47 760.18,590.95 C760.36,591.44 768.83,602.05 779.00,614.55 C789.17,627.04 803.53,644.74 810.89,653.88 C818.25,663.02 830.96,678.71 839.13,688.75 ZM 611.61 704.51 C604.21,708.19 595.34,708.01 587.31,704.00 C584.01,702.35 580.61,700.21 579.75,699.25 C578.28,697.61 562.30,670.36 558.62,663.24 C557.40,660.87 557.29,660.05 558.22,660.24 C558.92,660.38 559.79,660.90 560.15,661.40 C560.51,661.89 561.63,661.93 562.65,661.49 C563.67,661.04 564.77,660.73 565.10,660.79 C565.43,660.85 573.75,661.59 583.60,662.44 C593.44,663.29 603.60,664.52 606.17,665.16 C610.17,666.17 611.20,666.10 613.38,664.67 C616.41,662.69 618.66,662.53 619.29,664.25 C621.27,669.65 624.42,649.29 623.82,635.00 C623.52,627.98 623.63,627.52 625.50,627.81 C627.43,628.12 628.11,628.11 632.50,627.79 C633.60,627.71 638.25,627.72 642.84,627.82 C650.16,627.98 651.25,628.24 651.69,629.93 C652.82,634.23 657.53,633.01 658.47,628.18 C658.95,625.68 661.78,622.45 662.70,623.36 C663.03,623.69 662.11,625.68 660.65,627.79 C659.19,629.89 658.00,631.91 658.00,632.29 C658.00,633.79 621.51,696.69 619.15,699.26 C617.75,700.77 614.36,703.14 611.61,704.51 Z" fill="rgb(19,31,60)"/>
<path d="M 459.78 616.48 C459.75,616.41 459.70,616.33 459.65,616.24 C459.28,615.65 459.39,615.02 459.88,614.84 C460.37,614.65 464.47,607.53 469.00,599.00 C476.42,585.00 491.14,557.70 494.99,550.78 C497.87,545.59 506.47,537.68 512.00,535.14 C516.68,532.99 518.99,532.60 527.50,532.55 C539.56,532.49 544.80,534.07 555.22,540.94 C562.08,545.47 574.69,557.62 590.83,575.28 C597.19,582.24 600.10,584.40 599.19,581.50 C599.13,581.32 598.81,580.67 598.20,579.51 C599.13,581.20 600.04,582.87 600.94,584.50 C608.79,598.80 615.34,610.64 615.49,610.80 C615.65,610.97 618.58,605.80 622.02,599.30 C631.18,581.97 645.05,556.90 647.16,553.85 C648.17,552.39 649.00,550.31 649.00,549.23 C649.00,547.66 650.25,544.56 652.03,541.20 C648.35,549.12 647.09,558.31 648.95,567.26 C651.22,578.21 656.47,586.59 671.94,604.00 C672.41,604.53 673.00,605.22 673.71,606.06 C673.71,606.06 673.71,606.06 673.71,606.06 C673.17,606.74 664.13,622.32 653.41,640.98 C656.22,635.95 658.00,632.62 658.00,632.29 C658.00,631.91 659.19,629.89 660.65,627.79 C662.11,625.68 663.03,623.69 662.70,623.36 C661.78,622.45 658.95,625.68 658.47,628.18 C657.53,633.01 652.82,634.23 651.69,629.93 C651.25,628.24 650.16,627.98 642.84,627.82 C638.25,627.72 633.60,627.71 632.50,627.79 C628.11,628.11 627.43,628.12 625.50,627.81 C623.63,627.52 623.52,627.98 623.82,635.00 C624.42,649.29 621.27,669.65 619.29,664.25 C618.66,662.53 616.41,662.69 613.38,664.67 C611.20,666.10 610.17,666.17 606.17,665.16 C603.60,664.52 593.44,663.29 583.60,662.44 C573.75,661.59 565.43,660.85 565.10,660.79 C564.77,660.73 563.67,661.04 562.65,661.49 C561.63,661.93 560.51,661.89 560.15,661.40 C559.79,660.90 558.92,660.38 558.22,660.24 C557.29,660.05 557.40,660.87 558.62,663.24 C561.54,668.91 572.26,687.32 577.26,695.43 C574.91,692.01 571.90,686.86 567.06,678.50 C561.97,669.70 554.32,656.65 550.04,649.50 C545.77,642.35 531.36,618.05 518.02,595.50 C504.68,572.95 493.64,554.36 493.50,554.20 C493.16,553.82 480.28,577.65 459.78,616.48 ZM 451.17 624.55 C452.08,624.17 454.05,622.09 455.54,619.94 C457.03,617.79 458.71,616.32 459.28,616.67 C459.41,616.75 459.51,616.80 459.60,616.83 C450.37,634.31 439.60,654.81 427.75,677.50 C414.13,703.57 414.77,702.56 410.03,704.99 C402.96,708.59 393.45,707.22 388.20,701.85 C386.94,700.56 379.93,688.70 372.63,675.50 C351.92,638.04 338.33,613.87 330.60,600.73 C330.64,600.72 330.68,600.70 330.73,600.67 C331.24,600.35 332.75,601.82 334.08,603.92 L 336.50 607.75 L 346.00 607.55 C353.71,607.39 376.53,608.81 392.50,610.46 C394.15,610.63 396.96,610.82 398.75,610.88 C402.26,611.01 403.35,613.50 400.25,614.31 C398.79,614.69 398.84,614.79 400.53,614.88 C401.64,614.95 403.56,615.70 404.79,616.57 C406.28,617.61 409.27,618.13 413.76,618.13 C425.41,618.14 430.80,618.47 431.58,619.25 C431.99,619.66 433.27,620.00 434.42,620.00 C435.56,620.01 438.39,621.26 440.69,622.79 C444.77,625.49 447.75,626.00 451.17,624.55 ZM 330.40 600.39 C328.95,597.94 327.61,595.55 326.60,593.68 C327.13,593.39 328.45,594.01 329.64,595.13 C331.49,596.87 331.72,597.65 330.86,599.26 C330.60,599.74 330.45,600.13 330.40,600.39 ZM 447.74 622.67 C446.58,619.80 446.79,617.39 448.08,618.68 C448.68,619.28 449.01,620.83 448.83,622.13 C448.52,624.22 448.39,624.28 447.74,622.67 ZM 574.48 536.50 C562.28,514.57 538.02,470.16 531.33,457.53 C529.46,453.99 527.66,450.90 525.89,448.20 C527.67,450.90 529.46,453.99 531.33,457.53 C537.06,468.35 559.80,509.89 579.20,545.00 C577.72,542.33 576.14,539.50 574.48,536.50 ZM 326.39 593.29 C325.50,591.63 324.91,590.44 324.83,590.08 C324.81,589.99 324.77,589.88 324.73,589.76 C324.93,589.94 325.17,590.14 325.46,590.35 C326.66,591.22 327.02,592.19 326.49,593.10 C326.45,593.17 326.42,593.23 326.39,593.29 ZM 637.81 668.22 C629.24,683.21 621.28,696.48 619.38,698.97 C621.15,696.56 629.39,682.69 637.81,668.22 ZM 611.61 704.51 C614.21,703.21 617.39,701.02 618.91,699.51 C615.95,702.63 612.13,704.81 607.91,705.99 C609.18,705.60 610.41,705.10 611.61,704.51 ZM 668.57 523.33 C671.71,521.55 675.12,520.03 678.50,518.95 C679.56,518.61 681.98,518.32 685.87,518.06 C677.54,518.78 674.60,520.14 668.75,523.24 C668.69,523.27 668.63,523.30 668.57,523.33 ZM 690.60 626.89 C700.92,639.84 714.86,657.53 731.50,678.81 C719.40,663.33 702.14,641.41 693.14,630.09 C692.28,629.01 691.43,627.94 690.60,626.89 ZM 324.35 588.99 C323.94,588.28 323.33,587.45 322.71,586.80 C321.73,585.77 321.20,584.49 321.52,583.96 C321.20,584.49 321.84,585.84 322.96,586.96 C324.03,588.03 324.64,588.92 324.35,588.99 ZM 657.82 532.10 C658.73,530.93 659.62,529.92 660.42,529.18 C661.35,528.32 662.37,527.48 663.46,526.67 C661.39,528.28 659.51,530.10 657.82,532.10 ZM 583.14 701.69 C584.36,702.43 585.76,703.21 587.15,703.91 C585.57,703.13 584.29,702.46 583.14,701.69 Z" fill="rgb(18,56,156)"/>
<path d="M 0.00 512.00 L 0.00 0.00 L 512.00 0.00 L 1024.00 0.00 L 1024.00 512.00 L 1024.00 1024.00 L 512.00 1024.00 L 0.00 1024.00 L 0.00 512.00 ZM 410.03 704.99 C414.77,702.56 414.13,703.57 427.75,677.50 C466.08,604.15 493.01,553.64 493.50,554.20 C493.64,554.36 504.68,572.95 518.02,595.50 C531.36,618.05 545.77,642.35 550.04,649.50 C554.32,656.65 561.97,669.70 567.06,678.50 C579.09,699.31 579.86,700.27 587.15,703.91 C598.16,709.42 611.62,707.46 619.14,699.26 C620.53,697.74 629.25,683.22 638.50,667.00 C654.26,639.39 672.93,607.05 673.71,606.06 C673.89,605.82 674.66,606.49 675.41,607.56 C676.16,608.63 684.14,618.76 693.14,630.09 C702.14,641.41 719.40,663.33 731.50,678.81 L 753.50 706.94 L 803.74 706.97 L 853.97 707.00 L 839.13 688.75 C830.96,678.71 818.25,663.02 810.89,653.88 C803.53,644.74 789.17,627.04 779.00,614.55 C768.83,602.05 760.36,591.44 760.18,590.95 C760.00,590.47 761.13,589.79 762.68,589.45 C782.01,585.16 800.68,574.40 815.15,559.20 C832.75,540.70 842.34,519.60 844.99,493.57 C846.89,474.92 843.11,455.92 833.93,438.00 C820.96,412.66 798.64,394.13 770.45,385.30 L 761.50 382.50 L 640.68 382.23 C574.22,382.08 520.05,382.30 520.29,382.73 C520.53,383.15 526.57,393.40 533.71,405.50 C552.17,436.79 560.57,451.16 561.90,453.73 L 563.05 455.96 L 655.77 456.23 L 748.50 456.50 L 753.82 459.45 C774.73,471.03 774.35,501.30 753.15,513.77 L 748.50 516.50 L 715.50 517.09 C693.01,517.49 681.23,518.08 678.50,518.95 C671.82,521.08 665.05,524.91 660.42,529.18 C655.97,533.28 649.00,545.52 649.00,549.23 C649.00,550.31 648.17,552.39 647.16,553.85 C645.05,556.90 631.18,581.97 622.02,599.30 C618.58,605.80 615.65,610.97 615.49,610.80 C615.34,610.64 608.79,598.80 600.94,584.50 C593.09,570.20 583.31,552.42 579.20,545.00 C559.80,509.89 537.06,468.35 531.33,457.53 C523.83,443.37 517.64,436.50 508.60,432.32 C503.33,429.88 501.27,429.50 493.45,429.50 C485.00,429.50 483.89,429.75 476.79,433.26 C464.34,439.41 462.73,441.75 434.59,494.44 C420.89,520.09 409.33,540.72 408.90,540.29 C408.13,539.50 368.82,471.20 347.73,434.00 C325.59,394.96 318.83,383.48 317.24,382.25 C316.06,381.34 309.72,381.00 293.81,381.00 L 272.00 381.00 L 272.00 404.98 L 272.00 428.96 L 252.48 429.23 L 232.95 429.50 L 237.79 438.00 C240.46,442.67 258.78,474.85 278.51,509.50 C298.24,544.15 314.86,572.83 315.44,573.23 C316.02,573.64 316.08,573.98 315.56,573.98 C315.04,573.99 315.49,574.66 316.56,575.47 C317.63,576.28 318.14,576.95 317.69,576.97 C316.63,577.01 320.18,583.00 321.27,583.00 C321.74,583.00 321.85,583.43 321.52,583.96 C321.20,584.49 321.73,585.77 322.71,586.80 C323.70,587.83 324.65,589.30 324.83,590.08 C325.01,590.86 327.55,595.55 330.46,600.50 C338.17,613.59 351.79,637.82 372.63,675.50 C379.93,688.70 386.94,700.56 388.20,701.85 C393.45,707.22 402.96,708.59 410.03,704.99 ZM 232.00 396.00 L 232.00 382.00 L 218.00 382.00 L 204.00 382.00 L 204.00 396.00 L 204.00 410.00 L 218.00 410.00 L 232.00 410.00 L 232.00 396.00 ZM 256.75 379.11 L 272.00 379.00 L 272.00 360.00 L 272.00 341.00 L 253.50 341.00 L 235.00 341.00 L 235.00 359.83 C235.00,370.19 235.27,378.94 235.60,379.27 C235.93,379.60 237.39,379.72 238.85,379.55 C240.31,379.37 248.36,379.18 256.75,379.11 ZM 198.00 358.50 L 198.00 347.00 L 186.50 347.00 L 175.00 347.00 L 175.00 358.50 L 175.00 370.00 L 186.50 370.00 L 198.00 370.00 L 198.00 358.50 ZM 233.78 325.75 L 233.50 313.50 L 221.75 313.22 L 210.00 312.94 L 210.00 325.47 L 210.00 338.00 L 222.03 338.00 L 234.06 338.00 L 233.78 325.75 ZM 191.00 293.46 L 191.00 284.92 L 183.25 285.21 L 175.50 285.50 L 175.20 292.40 C175.04,296.20 175.13,299.91 175.42,300.65 C175.79,301.62 178.07,302.00 183.47,302.00 L 191.00 302.00 L 191.00 293.46 ZM 279.67 455.33 C279.30,454.97 279.00,450.47 279.00,445.33 L 279.00 436.00 L 288.50 436.00 L 298.00 436.00 L 298.00 445.38 C298.00,454.27 297.88,454.80 295.75,455.37 C292.69,456.19 280.49,456.16 279.67,455.33 Z" fill="rgb(253,253,253)"/>
</g>
</svg>